{
  "accessors": [
    {
      "bufferView": 0,
      "componentType": 5125,
      "count": 11415,
      "type": "SCALAR"
    },
    {
      "bufferView": 1,
      "componentType": 5126,
      "count": 6187,
      "max": [
        95.7646102905273,
        147.132369995117,
        60.19921875
      ],
      "min": [
        -95.7646102905273,
        -131.268615722656,
        -50.077335357666
      ],
      "type": "VEC3"
    },
    {
      "bufferView": 2,
      "componentType": 5126,
      "count": 6187,
      "type": "VEC3"
    },
    {
      "bufferView": 3,
      "componentType": 5126,
      "count": 6187,
      "type": "VEC4"
    },
    {
      "bufferView": 4,
      "componentType": 5126,
      "count": 6187,
      "type": "VEC2"
    },
    {
      "bufferView": 5,
      "componentType": 5125,
      "count": 23826,
      "type": "SCALAR"
    },
    {
      "bufferView": 6,
      "componentType": 5126,
      "count": 8902,
      "max": [
        95.2701034545898,
        145.594329833984,
        59.8231925964355
      ],
      "min": [
        -95.2701034545898,
        -147.596237182617,
        -49.6737976074219
      ],
      "type": "VEC3"
    },
    {
      "bufferView": 7,
      "componentType": 5126,
      "count": 8902,
      "type": "VEC3"
    },
    {
      "bufferView": 8,
      "componentType": 5126,
      "count": 8902,
      "type": "VEC4"
    },
    {
      "bufferView": 9,
      "componentType": 5126,
      "count": 8902,
      "type": "VEC2"
    },
    {
      "bufferView": 10,
      "componentType": 5125,
      "count": 55818,
      "type": "SCALAR"
    },
    {
      "bufferView": 11,
      "componentType": 5126,
      "count": 20114,
      "max": [
        95.2701034545898,
        147.596237182617,
        59.8689498901367
      ],
      "min": [
        -95.2701034545898,
        -142.543487548828,
        -60.1992263793945
      ],
      "type": "VEC3"
    },
    {
      "bufferView": 12,
      "componentType": 5126,
      "count": 20114,
      "type": "VEC3"
    },
    {
      "bufferView": 13,
      "componentType": 5126,
      "count": 20114,
      "type": "VEC4"
    },
    {
      "bufferView": 14,
      "componentType": 5126,
      "count": 20114,
      "type": "VEC2"
    },
    {
      "bufferView": 15,
      "componentType": 5125,
      "count": 10338,
      "type": "SCALAR"
    },
    {
      "bufferView": 16,
      "componentType": 5126,
      "count": 2567,
      "max": [
        87.3698272705078,
        137.834762573242,
        57.6668815612793
      ],
      "min": [
        -87.3698272705078,
        -129.146087646484,
        -55.6627807617188
      ],
      "type": "VEC3"
    },
    {
      "bufferView": 17,
      "componentType": 5126,
      "count": 2567,
      "type": "VEC3"
    },
    {
      "bufferView": 18,
      "componentType": 5126,
      "count": 2567,
      "type": "VEC4"
    },
    {
      "bufferView": 19,
      "componentType": 5126,
      "count": 2567,
      "type": "VEC2"
    },
    {
      "bufferView": 20,
      "componentType": 5125,
      "count": 24375,
      "type": "SCALAR"
    },
    {
      "bufferView": 21,
      "componentType": 5126,
      "count": 15995,
      "max": [
        94.6094284057617,
        147.087036132812,
        60.1956748962402
      ],
      "min": [
        -94.6141967773438,
        -147.596237182617,
        -55.5076599121094
      ],
      "type": "VEC3"
    },
    {
      "bufferView": 22,
      "componentType": 5126,
      "count": 15995,
      "type": "VEC3"
    },
    {
      "bufferView": 23,
      "componentType": 5126,
      "count": 15995,
      "type": "VEC4"
    },
    {
      "bufferView": 24,
      "componentType": 5126,
      "count": 15995,
      "type": "VEC2"
    },
    {
      "bufferView": 25,
      "componentType": 5125,
      "count": 10530,
      "type": "SCALAR"
    },
    {
      "bufferView": 26,
      "componentType": 5126,
      "count": 5788,
      "max": [
        83.2733306884766,
        114.334541320801,
        33.6209373474121
      ],
      "min": [
        -83.2733306884766,
        -114.749504089355,
        -54.5298309326172
      ],
      "type": "VEC3"
    },
    {
      "bufferView": 27,
      "componentType": 5126,
      "count": 5788,
      "type": "VEC3"
    },
    {
      "bufferView": 28,
      "componentType": 5126,
      "count": 5788,
      "type": "VEC4"
    },
    {
      "bufferView": 29,
      "componentType": 5126,
      "count": 5788,
      "type": "VEC2"
    },
    {
      "bufferView": 30,
      "componentType": 5125,
      "count": 5388,
      "type": "SCALAR"
    },
    {
      "bufferView": 31,
      "componentType": 5126,
      "count": 2366,
      "max": [
        94.6236877441406,
        104.347473144531,
        56.4528045654297
      ],
      "min": [
        -94.6236343383789,
        -143.713607788086,
        -48.9695129394531
      ],
      "type": "VEC3"
    },
    {
      "bufferView": 32,
      "componentType": 5126,
      "count": 2366,
      "type": "VEC3"
    },
    {
      "bufferView": 33,
      "componentType": 5126,
      "count": 2366,
      "type": "VEC4"
    },
    {
      "bufferView": 34,
      "componentType": 5126,
      "count": 2366,
      "type": "VEC2"
    }
  ],
  "asset": {
    "generator": "Adobe Substance 3D Painter 8.1.1",
    "version": "2.0"
  },
  "bufferViews": [
    {
      "buffer": 0,
      "byteLength": 45660,
      "target": 34963
    },
    {
      "buffer": 0,
      "byteLength": 74244,
      "byteOffset": 45660,
      "target": 34962
    },
    {
      "buffer": 0,
      "byteLength": 74244,
      "byteOffset": 119904,
      "target": 34962
    },
    {
      "buffer": 0,
      "byteLength": 98992,
      "byteOffset": 194148,
      "target": 34962
    },
    {
      "buffer": 0,
      "byteLength": 49496,
      "byteOffset": 293140,
      "target": 34962
    },
    {
      "buffer": 0,
      "byteLength": 95304,
      "byteOffset": 342636,
      "target": 34963
    },
    {
      "buffer": 0,
      "byteLength": 106824,
      "byteOffset": 437940,
      "target": 34962
    },
    {
      "buffer": 0,
      "byteLength": 106824,
      "byteOffset": 544764,
      "target": 34962
    },
    {
      "buffer": 0,
      "byteLength": 142432,
      "byteOffset": 651588,
      "target": 34962
    },
    {
      "buffer": 0,
      "byteLength": 71216,
      "byteOffset": 794020,
      "target": 34962
    },
    {
      "buffer": 0,
      "byteLength": 223272,
      "byteOffset": 865236,
      "target": 34963
    },
    {
      "buffer": 0,
      "byteLength": 241368,
      "byteOffset": 1088508,
      "target": 34962
    },
    {
      "buffer": 0,
      "byteLength": 241368,
      "byteOffset": 1329876,
      "target": 34962
    },
    {
      "buffer": 0,
      "byteLength": 321824,
      "byteOffset": 1571244,
      "target": 34962
    },
    {
      "buffer": 0,
      "byteLength": 160912,
      "byteOffset": 1893068,
      "target": 34962
    },
    {
      "buffer": 0,
      "byteLength": 41352,
      "byteOffset": 2053980,
      "target": 34963
    },
    {
      "buffer": 0,
      "byteLength": 30804,
      "byteOffset": 2095332,
      "target": 34962
    },
    {
      "buffer": 0,
      "byteLength": 30804,
      "byteOffset": 2126136,
      "target": 34962
    },
    {
      "buffer": 0,
      "byteLength": 41072,
      "byteOffset": 2156940,
      "target": 34962
    },
    {
      "buffer": 0,
      "byteLength": 20536,
      "byteOffset": 2198012,
      "target": 34962
    },
    {
      "buffer": 0,
      "byteLength": 97500,
      "byteOffset": 2218548,
      "target": 34963
    },
    {
      "buffer": 0,
      "byteLength": 191940,
      "byteOffset": 2316048,
      "target": 34962
    },
    {
      "buffer": 0,
      "byteLength": 191940,
      "byteOffset": 2507988,
      "target": 34962
    },
    {
      "buffer": 0,
      "byteLength": 255920,
      "byteOffset": 2699928,
      "target": 34962
    },
    {
      "buffer": 0,
      "byteLength": 127960,
      "byteOffset": 2955848,
      "target": 34962
    },
    {
      "buffer": 0,
      "byteLength": 42120,
      "byteOffset": 3083808,
      "target": 34963
    },
    {
      "buffer": 0,
      "byteLength": 69456,
      "byteOffset": 3125928,
      "target": 34962
    },
    {
      "buffer": 0,
      "byteLength": 69456,
      "byteOffset": 3195384,
      "target": 34962
    },
    {
      "buffer": 0,
      "byteLength": 92608,
      "byteOffset": 3264840,
      "target": 34962
    },
    {
      "buffer": 0,
      "byteLength": 46304,
      "byteOffset": 3357448,
      "target": 34962
    },
    {
      "buffer": 0,
      "byteLength": 21552,
      "byteOffset": 3403752,
      "target": 34963
    },
    {
      "buffer": 0,
      "byteLength": 28392,
      "byteOffset": 3425304,
      "target": 34962
    },
    {
      "buffer": 0,
      "byteLength": 28392,
      "byteOffset": 3453696,
      "target": 34962
    },
    {
      "buffer": 0,
      "byteLength": 37856,
      "byteOffset": 3482088,
      "target": 34962
    },
    {
      "buffer": 0,
      "byteLength": 18928,
      "byteOffset": 3519944,
      "target": 34962
    }
  ],
  "buffers": [
    {
      "byteLength": 3538872,
      "uri": "Untitled.bin"
    }
  ],
  "images": [
    {
      "uri": "blue_baseColor.png"
    },
    {
      "uri": "blue_occlusionRoughnessMetallic.png"
    },
    {
      "uri": "blue_normal.png"
    },
    {
      "uri": "dark_baseColor.png"
    },
    {
      "uri": "dark_occlusionRoughnessMetallic.png"
    },
    {
      "uri": "dark_normal.png"
    },
    {
      "uri": "darksteel_baseColor.png"
    },
    {
      "uri": "darksteel_occlusionRoughnessMetallic.png"
    },
    {
      "uri": "darksteel_normal.png"
    },
    {
      "uri": "glass_baseColor.png"
    },
    {
      "uri": "glass_occlusionRoughnessMetallic.png"
    },
    {
      "uri": "glass_normal.png"
    },
    {
      "uri": "gold_baseColor.png"
    },
    {
      "uri": "gold_occlusionRoughnessMetallic.png"
    },
    {
      "uri": "gold_normal.png"
    },
    {
      "uri": "latex_baseColor.png"
    },
    {
      "uri": "latex_occlusionRoughnessMetallic.png"
    },
    {
      "uri": "latex_normal.png"
    },
    {
      "uri": "white_baseColor.png"
    },
    {
      "uri": "white_occlusionRoughnessMetallic.png"
    },
    {
      "uri": "white_normal.png"
    }
  ],
  "materials": [
    {
      "alphaMode": "OPAQUE",
      "name": "blue",
      "normalTexture": {
        "index": 2
      },
      "occlusionTexture": {
        "index": 1
      },
      "pbrMetallicRoughness": {
        "baseColorTexture": {
          "index": 0
        },
        "metallicRoughnessTexture": {
          "index": 1
        }
      }
    },
    {
      "alphaMode": "OPAQUE",
      "name": "dark",
      "normalTexture": {
        "index": 5
      },
      "occlusionTexture": {
        "index": 4
      },
      "pbrMetallicRoughness": {
        "baseColorTexture": {
          "index": 3
        },
        "metallicRoughnessTexture": {
          "index": 4
        }
      }
    },
    {
      "alphaMode": "OPAQUE",
      "name": "darksteel",
      "normalTexture": {
        "index": 8
      },
      "occlusionTexture": {
        "index": 7
      },
      "pbrMetallicRoughness": {
        "baseColorTexture": {
          "index": 6
        },
        "metallicRoughnessTexture": {
          "index": 7
        }
      }
    },
    {
      "alphaMode": "OPAQUE",
      "name": "glass",
      "normalTexture": {
        "index": 11
      },
      "occlusionTexture": {
        "index": 10
      },
      "pbrMetallicRoughness": {
        "baseColorTexture": {
          "index": 9
        },
        "metallicRoughnessTexture": {
          "index": 10
        }
      }
    },
    {
      "alphaMode": "OPAQUE",
      "name": "gold",
      "normalTexture": {
        "index": 14
      },
      "occlusionTexture": {
        "index": 13
      },
      "pbrMetallicRoughness": {
        "baseColorTexture": {
          "index": 12
        },
        "metallicRoughnessTexture": {
          "index": 13
        }
      }
    },
    {
      "alphaMode": "OPAQUE",
      "name": "latex",
      "normalTexture": {
        "index": 17
      },
      "occlusionTexture": {
        "index": 16
      },
      "pbrMetallicRoughness": {
        "baseColorTexture": {
          "index": 15
        },
        "metallicRoughnessTexture": {
          "index": 16
        }
      }
    },
    {
      "alphaMode": "OPAQUE",
      "name": "white",
      "normalTexture": {
        "index": 20
      },
      "occlusionTexture": {
        "index": 19
      },
      "pbrMetallicRoughness": {
        "baseColorTexture": {
          "index": 18
        },
        "metallicRoughnessTexture": {
          "index": 19
        }
      }
    }
  ],
  "meshes": [
    {
      "name": "base-0",
      "primitives": [
        {
          "attributes": {
            "NORMAL": 2,
            "POSITION": 1,
            "TANGENT": 3,
            "TEXCOORD_0": 4
          },
          "indices": 0,
          "material": 0,
          "mode": 4
        }
      ]
    },
    {
      "name": "base-1",
      "primitives": [
        {
          "attributes": {
            "NORMAL": 7,
            "POSITION": 6,
            "TANGENT": 8,
            "TEXCOORD_0": 9
          },
          "indices": 5,
          "material": 3,
          "mode": 4
        }
      ]
    },
    {
      "name": "base-2",
      "primitives": [
        {
          "attributes": {
            "NORMAL": 12,
            "POSITION": 11,
            "TANGENT": 13,
            "TEXCOORD_0": 14
          },
          "indices": 10,
          "material": 6,
          "mode": 4
        }
      ]
    },
    {
      "name": "base-3",
      "primitives": [
        {
          "attributes": {
            "NORMAL": 17,
            "POSITION": 16,
            "TANGENT": 18,
            "TEXCOORD_0": 19
          },
          "indices": 15,
          "material": 2,
          "mode": 4
        }
      ]
    },
    {
      "name": "base-4",
      "primitives": [
        {
          "attributes": {
            "NORMAL": 22,
            "POSITION": 21,
            "TANGENT": 23,
            "TEXCOORD_0": 24
          },
          "indices": 20,
          "material": 5,
          "mode": 4
        }
      ]
    },
    {
      "name": "base-5",
      "primitives": [
        {
          "attributes": {
            "NORMAL": 27,
            "POSITION": 26,
            "TANGENT": 28,
            "TEXCOORD_0": 29
          },
          "indices": 25,
          "material": 4,
          "mode": 4
        }
      ]
    },
    {
      "name": "base-6",
      "primitives": [
        {
          "attributes": {
            "NORMAL": 32,
            "POSITION": 31,
            "TANGENT": 33,
            "TEXCOORD_0": 34
          },
          "indices": 30,
          "material": 1,
          "mode": 4
        }
      ]
    }
  ],
  "nodes": [
    {
      "children": [
        1
      ],
      "name": "path",
      "rotation": [
        0.707106828689575,
        0.0,
        0.0,
        0.707106709480286
      ],
      "scale": [
        0.00999999977648258,
        0.00999999884516001,
        0.00999999884516001
      ]
    },
    {
      "children": [
        2
      ],
      "name": "piece_122"
    },
    {
      "children": [
        3
      ],
      "name": "mat"
    },
    {
      "children": [
        4,
        5,
        6,
        7,
        8,
        9,
        10
      ],
      "name": "base"
    },
    {
      "mesh": 0,
      "name": "base-0"
    },
    {
      "mesh": 1,
      "name": "base-1"
    },
    {
      "mesh": 2,
      "name": "base-2"
    },
    {
      "mesh": 3,
      "name": "base-3"
    },
    {
      "mesh": 4,
      "name": "base-4"
    },
    {
      "mesh": 5,
      "name": "base-5"
    },
    {
      "mesh": 6,
      "name": "base-6"
    }
  ],
  "samplers": [
    {
      "magFilter": 9729,
      "minFilter": 9985,
      "wrapS": 10497,
      "wrapT": 10497
    }
  ],
  "scene": 0,
  "scenes": [
    {
      "name": "Scene",
      "nodes": [
        0
      ]
    }
  ],
  "textures": [
    {
      "sampler": 0,
      "source": 0
    },
    {
      "sampler": 0,
      "source": 1
    },
    {
      "sampler": 0,
      "source": 2
    },
    {
      "sampler": 0,
      "source": 3
    },
    {
      "sampler": 0,
      "source": 4
    },
    {
      "sampler": 0,
      "source": 5
    },
    {
      "sampler": 0,
      "source": 6
    },
    {
      "sampler": 0,
      "source": 7
    },
    {
      "sampler": 0,
      "source": 8
    },
    {
      "sampler": 0,
      "source": 9
    },
    {
      "sampler": 0,
      "source": 10
    },
    {
      "sampler": 0,
      "source": 11
    },
    {
      "sampler": 0,
      "source": 12
    },
    {
      "sampler": 0,
      "source": 13
    },
    {
      "sampler": 0,
      "source": 14
    },
    {
      "sampler": 0,
      "source": 15
    },
    {
      "sampler": 0,
      "source": 16
    },
    {
      "sampler": 0,
      "source": 17
    },
    {
      "sampler": 0,
      "source": 18
    },
    {
      "sampler": 0,
      "source": 19
    },
    {
      "sampler": 0,
      "source": 20
    }
  ]
}